<svg width="197" height="109" viewBox="0 0 197 109" fill="none" xmlns="http://www.w3.org/2000/svg">
<path d="M0 27.2747C0 23.8752 0.634085 20.8908 1.90226 18.3215C3.21006 15.7521 4.97361 13.7757 7.1929 12.3922C9.4122 11.0087 11.8891 10.317 14.6236 10.317C16.9618 10.317 19.0027 10.7913 20.7465 11.74C22.5298 12.6887 23.8971 13.9338 24.8482 15.4754V10.7913H35.0134V43.8767H24.8482V39.1926C23.8575 40.7342 22.4704 41.9793 20.687 42.928C18.9433 43.8767 16.9023 44.351 14.5641 44.351C11.8693 44.351 9.4122 43.6593 7.1929 42.2758C4.97361 40.8528 3.21006 38.8566 1.90226 36.2872C0.634085 33.6783 0 30.6742 0 27.2747ZM24.8482 27.334C24.8482 24.8042 24.1349 22.808 22.7082 21.3454C21.3211 19.8829 19.617 19.1516 17.5959 19.1516C15.5747 19.1516 13.8508 19.8829 12.4241 21.3454C11.037 22.7684 10.3435 24.7449 10.3435 27.2747C10.3435 29.8045 11.037 31.8205 12.4241 33.3226C13.8508 34.7851 15.5747 35.5164 17.5959 35.5164C19.617 35.5164 21.3211 34.7851 22.7082 33.3226C24.1349 31.86 24.8482 29.8638 24.8482 27.334Z" fill="white"/>
<path d="M52.5326 0V43.8767H42.3674V0H52.5326Z" fill="white"/>
<path d="M102.224 10.4355C106.346 10.4355 109.615 11.6807 112.033 14.171C114.49 16.6613 115.719 20.12 115.719 24.5472V43.8767H105.613V25.911C105.613 23.7764 105.038 22.136 103.889 20.9897C102.779 19.8038 101.234 19.2109 99.2521 19.2109C97.2706 19.2109 95.7052 19.8038 94.5559 20.9897C93.4463 22.136 92.8915 23.7764 92.8915 25.911V43.8767H82.7857V25.911C82.7857 23.7764 82.2111 22.136 81.0618 20.9897C79.9522 19.8038 78.4066 19.2109 76.4251 19.2109C74.4435 19.2109 72.8782 19.8038 71.7289 20.9897C70.6192 22.136 70.0644 23.7764 70.0644 25.911V43.8767H59.8992V10.7913H70.0644V14.9418C71.0948 13.5583 72.4422 12.4713 74.1067 11.6807C75.7712 10.8506 77.6536 10.4355 79.754 10.4355C82.2507 10.4355 84.47 10.9692 86.4119 12.0364C88.3934 13.1037 89.939 14.6256 91.0487 16.602C92.1979 14.7837 93.7633 13.3014 95.7448 12.155C97.7264 11.0087 99.8862 10.4355 102.224 10.4355Z" fill="white"/>
<path d="M120.807 27.2747C120.807 23.8752 121.441 20.8908 122.709 18.3215C124.017 15.7521 125.78 13.7757 128 12.3922C130.219 11.0087 132.696 10.317 135.43 10.317C137.768 10.317 139.809 10.7913 141.553 11.74C143.337 12.6887 144.704 13.9338 145.655 15.4754V10.7913H155.82V43.8767H145.655V39.1926C144.664 40.7342 143.277 41.9793 141.494 42.928C139.75 43.8767 137.709 44.351 135.371 44.351C132.676 44.351 130.219 43.6593 128 42.2758C125.78 40.8528 124.017 38.8566 122.709 36.2872C121.441 33.6783 120.807 30.6742 120.807 27.2747ZM145.655 27.334C145.655 24.8042 144.942 22.808 143.515 21.3454C142.128 19.8829 140.424 19.1516 138.403 19.1516C136.381 19.1516 134.657 19.8829 133.231 21.3454C131.844 22.7684 131.15 24.7449 131.15 27.2747C131.15 29.8045 131.844 31.8205 133.231 33.3226C134.657 34.7851 136.381 35.5164 138.403 35.5164C140.424 35.5164 142.128 34.7851 143.515 33.3226C144.942 31.86 145.655 29.8638 145.655 27.334Z" fill="white"/>
<path d="M12.1863 64.8861C13.1375 63.3445 14.5047 62.0994 16.2881 61.1507C18.0714 60.202 20.1124 59.7276 22.4109 59.7276C25.1454 59.7276 27.6223 60.4194 29.8416 61.8029C32.0609 63.1864 33.8047 65.1628 35.0728 67.7322C36.3806 70.3015 37.0345 73.2859 37.0345 76.6854C37.0345 80.0849 36.3806 83.089 35.0728 85.6979C33.8047 88.2673 32.0609 90.2635 29.8416 91.6865C27.6223 93.07 25.1454 93.7617 22.4109 93.7617C20.0728 93.7617 18.0318 93.3072 16.2881 92.398C14.5443 91.4493 13.1771 90.2042 12.1863 88.6626V93.2874L1.90226 95.1042L2.02115 49.4107H12.1863V64.8861ZM26.691 76.6854C26.691 74.1556 25.9777 72.1791 24.551 70.7561C23.1639 69.2936 21.44 68.5623 19.3792 68.5623C17.3581 68.5623 15.6342 69.2936 14.2075 70.7561C12.8204 72.2187 12.1269 74.2149 12.1269 76.7447C12.1269 79.2745 12.8204 81.2707 14.2075 82.7333C15.6342 84.1958 17.3581 84.9271 19.3792 84.9271C21.4004 84.9271 23.1243 84.1958 24.551 82.7333C25.9777 81.2312 26.691 79.2152 26.691 76.6854Z" fill="white"/>
<path d="M75.1219 60.202V93.2874H64.9567V88.7811C63.9263 90.2437 62.5195 91.4296 60.7361 92.3387C58.9924 93.2083 57.0505 93.6432 54.9104 93.6432C52.3741 93.6432 50.135 93.0898 48.1931 91.9829C46.2512 90.8366 44.7453 89.1962 43.6752 87.0617C42.6052 84.9271 42.0702 82.4171 42.0702 79.5315V60.202H52.176V78.1677C52.176 80.3813 52.7506 82.1008 53.8999 83.3262C55.0491 84.5516 56.5947 85.1643 58.5366 85.1643C60.5181 85.1643 62.0835 84.5516 63.2328 83.3262C64.3821 82.1008 64.9567 80.3813 64.9567 78.1677V60.202H75.1219Z" fill="white"/>
<path d="M80.4023 76.6854C80.4023 73.2859 81.0364 70.3015 82.3046 67.7322C83.6124 65.1628 85.3759 63.1864 87.5952 61.8029C89.8145 60.4194 92.2914 59.7276 95.0259 59.7276C97.2056 59.7276 99.1871 60.1822 100.97 61.0914C102.793 62.0005 104.22 63.2259 105.251 64.7675V49.4107H115.416V93.2874H105.251V88.544C104.299 90.1251 102.932 91.39 101.149 92.3387C99.4051 93.2874 97.3641 93.7617 95.0259 93.7617C92.2914 93.7617 89.8145 93.07 87.5952 91.6865C85.3759 90.2635 83.6124 88.2673 82.3046 85.6979C81.0364 83.089 80.4023 80.0849 80.4023 76.6854ZM105.251 76.7447C105.251 74.2149 104.537 72.2187 103.111 70.7561C101.723 69.2936 100.019 68.5623 97.9982 68.5623C95.9771 68.5623 94.2531 69.2936 92.8264 70.7561C91.4394 72.1791 90.7458 74.1556 90.7458 76.6854C90.7458 79.2152 91.4394 81.2312 92.8264 82.7333C94.2531 84.1958 95.9771 84.9271 97.9982 84.9271C100.019 84.9271 101.723 84.1958 103.111 82.7333C104.537 81.2707 105.251 79.2745 105.251 76.7447Z" fill="white"/>
<path d="M120.749 76.6854C120.749 73.2859 121.383 70.3015 122.651 67.7322C123.959 65.1628 125.722 63.1864 127.942 61.8029C130.161 60.4194 132.638 59.7276 135.372 59.7276C137.552 59.7276 139.533 60.1822 141.317 61.0914C143.14 62.0005 144.566 63.2259 145.597 64.7675V49.4107H155.762V95.1042L145.597 93.2874V88.544C144.646 90.1251 143.278 91.39 141.495 92.3387C139.751 93.2874 137.71 93.7617 135.372 93.7617C132.638 93.7617 130.161 93.07 127.942 91.6865C125.722 90.2635 123.959 88.2673 122.651 85.6979C121.383 83.089 120.749 80.0849 120.749 76.6854ZM145.597 76.7447C145.597 74.2149 144.883 72.2187 143.457 70.7561C142.07 69.2936 140.366 68.5623 138.344 68.5623C136.323 68.5623 134.599 69.2936 133.173 70.7561C131.786 72.1791 131.092 74.1556 131.092 76.6854C131.092 79.2152 131.786 81.2312 133.173 82.7333C134.599 84.1958 136.323 84.9271 138.344 84.9271C140.366 84.9271 142.07 84.1958 143.457 82.7333C144.883 81.2707 145.597 79.2745 145.597 76.7447Z" fill="white"/>
<path d="M197 60.202L176.194 109L166.764 105.64L172.865 92.1608L159.371 60.202H170.725L178.394 80.8952L186.003 60.202H197Z" fill="white"/>
</svg>
